<mxfile host="app.diagrams.net" modified="2023-05-19T00:36:27.214Z" agent="Mozilla/5.0 (Macintosh; Intel Mac OS X 10_15_7) AppleWebKit/537.36 (KHTML, like Gecko) Chrome/112.0.0.0 Safari/537.36 Edg/112.0.0.0" etag="-U5peb6xsoSea0stWXpz" version="21.2.9" type="github">
  <diagram id="C5RBs43oDa-KdzZeNtuy" name="Page-1">
    <mxGraphModel dx="535" dy="418" grid="1" gridSize="10" guides="1" tooltips="1" connect="1" arrows="1" fold="1" page="1" pageScale="1" pageWidth="827" pageHeight="1169" math="0" shadow="0">
      <root>
        <mxCell id="WIyWlLk6GJQsqaUBKTNV-0" />
        <mxCell id="WIyWlLk6GJQsqaUBKTNV-1" parent="WIyWlLk6GJQsqaUBKTNV-0" />
        <mxCell id="Ql8y3_wngauIUIK8zuqU-13" value="" style="edgeStyle=orthogonalEdgeStyle;rounded=0;orthogonalLoop=1;jettySize=auto;html=1;" edge="1" parent="WIyWlLk6GJQsqaUBKTNV-1" source="Ql8y3_wngauIUIK8zuqU-5" target="Ql8y3_wngauIUIK8zuqU-12">
          <mxGeometry relative="1" as="geometry" />
        </mxCell>
        <mxCell id="Ql8y3_wngauIUIK8zuqU-5" value="Image" style="strokeWidth=2;html=1;shape=mxgraph.flowchart.start_1;whiteSpace=wrap;" vertex="1" parent="WIyWlLk6GJQsqaUBKTNV-1">
          <mxGeometry x="80" y="310" width="100" height="60" as="geometry" />
        </mxCell>
        <mxCell id="Ql8y3_wngauIUIK8zuqU-48" style="edgeStyle=orthogonalEdgeStyle;rounded=0;orthogonalLoop=1;jettySize=auto;html=1;entryX=-0.007;entryY=0.15;entryDx=0;entryDy=0;entryPerimeter=0;" edge="1" parent="WIyWlLk6GJQsqaUBKTNV-1" source="Ql8y3_wngauIUIK8zuqU-7" target="Ql8y3_wngauIUIK8zuqU-22">
          <mxGeometry relative="1" as="geometry" />
        </mxCell>
        <mxCell id="Ql8y3_wngauIUIK8zuqU-49" value="append desciption" style="edgeLabel;html=1;align=center;verticalAlign=middle;resizable=0;points=[];" vertex="1" connectable="0" parent="Ql8y3_wngauIUIK8zuqU-48">
          <mxGeometry x="-0.1298" y="3" relative="1" as="geometry">
            <mxPoint as="offset" />
          </mxGeometry>
        </mxCell>
        <mxCell id="Ql8y3_wngauIUIK8zuqU-7" value="Fast Describer" style="rounded=1;whiteSpace=wrap;html=1;absoluteArcSize=1;arcSize=14;strokeWidth=2;" vertex="1" parent="WIyWlLk6GJQsqaUBKTNV-1">
          <mxGeometry x="470" y="260" width="120" height="50" as="geometry" />
        </mxCell>
        <mxCell id="Ql8y3_wngauIUIK8zuqU-8" value="blip2 &lt;br&gt;about 0.2s" style="text;strokeColor=none;fillColor=none;align=left;verticalAlign=middle;spacingLeft=4;spacingRight=4;overflow=hidden;points=[[0,0.5],[1,0.5]];portConstraint=eastwest;rotatable=0;whiteSpace=wrap;html=1;" vertex="1" parent="WIyWlLk6GJQsqaUBKTNV-1">
          <mxGeometry x="580" y="230" width="80" height="30" as="geometry" />
        </mxCell>
        <mxCell id="Ql8y3_wngauIUIK8zuqU-14" style="edgeStyle=orthogonalEdgeStyle;rounded=0;orthogonalLoop=1;jettySize=auto;html=1;" edge="1" parent="WIyWlLk6GJQsqaUBKTNV-1" source="Ql8y3_wngauIUIK8zuqU-12" target="Ql8y3_wngauIUIK8zuqU-7">
          <mxGeometry relative="1" as="geometry" />
        </mxCell>
        <mxCell id="Ql8y3_wngauIUIK8zuqU-19" value="No" style="edgeLabel;html=1;align=center;verticalAlign=middle;resizable=0;points=[];" vertex="1" connectable="0" parent="Ql8y3_wngauIUIK8zuqU-14">
          <mxGeometry x="0.5466" y="-1" relative="1" as="geometry">
            <mxPoint as="offset" />
          </mxGeometry>
        </mxCell>
        <mxCell id="Ql8y3_wngauIUIK8zuqU-16" style="edgeStyle=orthogonalEdgeStyle;rounded=0;orthogonalLoop=1;jettySize=auto;html=1;entryX=-0.001;entryY=0.643;entryDx=0;entryDy=0;entryPerimeter=0;" edge="1" parent="WIyWlLk6GJQsqaUBKTNV-1" source="Ql8y3_wngauIUIK8zuqU-12" target="Ql8y3_wngauIUIK8zuqU-15">
          <mxGeometry relative="1" as="geometry" />
        </mxCell>
        <mxCell id="Ql8y3_wngauIUIK8zuqU-18" value="Yes" style="edgeLabel;html=1;align=center;verticalAlign=middle;resizable=0;points=[];" vertex="1" connectable="0" parent="Ql8y3_wngauIUIK8zuqU-16">
          <mxGeometry x="0.5817" y="2" relative="1" as="geometry">
            <mxPoint as="offset" />
          </mxGeometry>
        </mxCell>
        <mxCell id="Ql8y3_wngauIUIK8zuqU-12" value="前端启用/&lt;br&gt;GPT启用" style="rhombus;whiteSpace=wrap;html=1;strokeWidth=2;" vertex="1" parent="WIyWlLk6GJQsqaUBKTNV-1">
          <mxGeometry x="240" y="310" width="120" height="60" as="geometry" />
        </mxCell>
        <mxCell id="Ql8y3_wngauIUIK8zuqU-39" style="edgeStyle=orthogonalEdgeStyle;rounded=0;orthogonalLoop=1;jettySize=auto;html=1;entryX=0;entryY=0.5;entryDx=0;entryDy=0;" edge="1" parent="WIyWlLk6GJQsqaUBKTNV-1" source="Ql8y3_wngauIUIK8zuqU-15" target="Ql8y3_wngauIUIK8zuqU-38">
          <mxGeometry relative="1" as="geometry" />
        </mxCell>
        <mxCell id="Ql8y3_wngauIUIK8zuqU-15" value="Full Describer" style="rounded=1;whiteSpace=wrap;html=1;absoluteArcSize=1;arcSize=14;strokeWidth=2;" vertex="1" parent="WIyWlLk6GJQsqaUBKTNV-1">
          <mxGeometry x="470" y="360" width="120" height="50" as="geometry" />
        </mxCell>
        <mxCell id="Ql8y3_wngauIUIK8zuqU-34" style="edgeStyle=orthogonalEdgeStyle;rounded=0;orthogonalLoop=1;jettySize=auto;html=1;entryX=0.5;entryY=1;entryDx=0;entryDy=0;entryPerimeter=0;" edge="1" parent="WIyWlLk6GJQsqaUBKTNV-1" source="Ql8y3_wngauIUIK8zuqU-20" target="Ql8y3_wngauIUIK8zuqU-33">
          <mxGeometry relative="1" as="geometry" />
        </mxCell>
        <mxCell id="Ql8y3_wngauIUIK8zuqU-20" value="Description" style="swimlane;fontStyle=0;childLayout=stackLayout;horizontal=1;startSize=30;horizontalStack=0;resizeParent=1;resizeParentMax=0;resizeLast=0;collapsible=1;marginBottom=0;whiteSpace=wrap;html=1;strokeColor=#707070;" vertex="1" parent="WIyWlLk6GJQsqaUBKTNV-1">
          <mxGeometry x="800" y="220" width="130" height="120" as="geometry">
            <mxRectangle x="750" y="790" width="60" height="30" as="alternateBounds" />
          </mxGeometry>
        </mxCell>
        <mxCell id="Ql8y3_wngauIUIK8zuqU-21" value="&lt;font style=&quot;font-size: 11px;&quot;&gt;The man is wearing a blue sweatshirt&lt;/font&gt;" style="text;strokeColor=#969696;fillColor=none;align=left;verticalAlign=middle;spacingLeft=4;spacingRight=4;overflow=hidden;points=[[0,0.5],[1,0.5]];portConstraint=eastwest;rotatable=0;whiteSpace=wrap;html=1;rounded=0;" vertex="1" parent="Ql8y3_wngauIUIK8zuqU-20">
          <mxGeometry y="30" width="130" height="30" as="geometry" />
        </mxCell>
        <mxCell id="Ql8y3_wngauIUIK8zuqU-22" value="The man is holding up a cell phone" style="text;strokeColor=#919191;fillColor=none;align=left;verticalAlign=middle;spacingLeft=4;spacingRight=4;overflow=hidden;points=[[0,0.5],[1,0.5]];portConstraint=eastwest;rotatable=0;whiteSpace=wrap;html=1;" vertex="1" parent="Ql8y3_wngauIUIK8zuqU-20">
          <mxGeometry y="60" width="130" height="30" as="geometry" />
        </mxCell>
        <mxCell id="Ql8y3_wngauIUIK8zuqU-23" value="...." style="text;strokeColor=none;fillColor=none;align=left;verticalAlign=middle;spacingLeft=4;spacingRight=4;overflow=hidden;points=[[0,0.5],[1,0.5]];portConstraint=eastwest;rotatable=0;whiteSpace=wrap;html=1;" vertex="1" parent="Ql8y3_wngauIUIK8zuqU-20">
          <mxGeometry y="90" width="130" height="30" as="geometry" />
        </mxCell>
        <mxCell id="Ql8y3_wngauIUIK8zuqU-36" style="edgeStyle=orthogonalEdgeStyle;rounded=0;orthogonalLoop=1;jettySize=auto;html=1;" edge="1" parent="WIyWlLk6GJQsqaUBKTNV-1" source="Ql8y3_wngauIUIK8zuqU-33" target="Ql8y3_wngauIUIK8zuqU-20">
          <mxGeometry relative="1" as="geometry" />
        </mxCell>
        <mxCell id="Ql8y3_wngauIUIK8zuqU-40" style="edgeStyle=orthogonalEdgeStyle;rounded=0;orthogonalLoop=1;jettySize=auto;html=1;" edge="1" parent="WIyWlLk6GJQsqaUBKTNV-1" source="Ql8y3_wngauIUIK8zuqU-33" target="Ql8y3_wngauIUIK8zuqU-41">
          <mxGeometry relative="1" as="geometry">
            <mxPoint x="750" y="180" as="targetPoint" />
          </mxGeometry>
        </mxCell>
        <mxCell id="Ql8y3_wngauIUIK8zuqU-33" value="&lt;br&gt;Image&lt;br&gt;Description" style="strokeWidth=2;html=1;shape=mxgraph.flowchart.database;whiteSpace=wrap;" vertex="1" parent="WIyWlLk6GJQsqaUBKTNV-1">
          <mxGeometry x="824.7900000000001" y="110" width="80.41" height="60" as="geometry" />
        </mxCell>
        <mxCell id="Ql8y3_wngauIUIK8zuqU-51" style="edgeStyle=orthogonalEdgeStyle;rounded=0;orthogonalLoop=1;jettySize=auto;html=1;entryX=-0.016;entryY=0.213;entryDx=0;entryDy=0;entryPerimeter=0;" edge="1" parent="WIyWlLk6GJQsqaUBKTNV-1" source="Ql8y3_wngauIUIK8zuqU-38" target="Ql8y3_wngauIUIK8zuqU-44">
          <mxGeometry relative="1" as="geometry" />
        </mxCell>
        <mxCell id="Ql8y3_wngauIUIK8zuqU-38" value="" style="shape=orEllipse;perimeter=ellipsePerimeter;whiteSpace=wrap;html=1;backgroundOutline=1;" vertex="1" parent="WIyWlLk6GJQsqaUBKTNV-1">
          <mxGeometry x="735" y="375" width="20" height="20" as="geometry" />
        </mxCell>
        <mxCell id="Ql8y3_wngauIUIK8zuqU-43" style="edgeStyle=orthogonalEdgeStyle;rounded=0;orthogonalLoop=1;jettySize=auto;html=1;entryX=0.5;entryY=0;entryDx=0;entryDy=0;" edge="1" parent="WIyWlLk6GJQsqaUBKTNV-1" source="Ql8y3_wngauIUIK8zuqU-41" target="Ql8y3_wngauIUIK8zuqU-38">
          <mxGeometry relative="1" as="geometry" />
        </mxCell>
        <mxCell id="Ql8y3_wngauIUIK8zuqU-41" value="Summary" style="rounded=1;whiteSpace=wrap;html=1;absoluteArcSize=1;arcSize=14;strokeWidth=2;" vertex="1" parent="WIyWlLk6GJQsqaUBKTNV-1">
          <mxGeometry x="710" y="120" width="70" height="40" as="geometry" />
        </mxCell>
        <mxCell id="Ql8y3_wngauIUIK8zuqU-44" value="Description" style="swimlane;fontStyle=0;childLayout=stackLayout;horizontal=1;startSize=30;horizontalStack=0;resizeParent=1;resizeParentMax=0;resizeLast=0;collapsible=1;marginBottom=0;whiteSpace=wrap;html=1;strokeColor=#707070;" vertex="1" parent="WIyWlLk6GJQsqaUBKTNV-1">
          <mxGeometry x="800" y="360" width="130" height="120" as="geometry">
            <mxRectangle x="750" y="790" width="60" height="30" as="alternateBounds" />
          </mxGeometry>
        </mxCell>
        <mxCell id="Ql8y3_wngauIUIK8zuqU-45" value="summary of prior" style="text;strokeColor=#969696;fillColor=none;align=left;verticalAlign=middle;spacingLeft=4;spacingRight=4;overflow=hidden;points=[[0,0.5],[1,0.5]];portConstraint=eastwest;rotatable=0;whiteSpace=wrap;html=1;rounded=0;" vertex="1" parent="Ql8y3_wngauIUIK8zuqU-44">
          <mxGeometry y="30" width="130" height="30" as="geometry" />
        </mxCell>
        <mxCell id="Ql8y3_wngauIUIK8zuqU-46" value="long description for current frame" style="text;strokeColor=#919191;fillColor=none;align=left;verticalAlign=middle;spacingLeft=4;spacingRight=4;overflow=hidden;points=[[0,0.5],[1,0.5]];portConstraint=eastwest;rotatable=0;whiteSpace=wrap;html=1;" vertex="1" parent="Ql8y3_wngauIUIK8zuqU-44">
          <mxGeometry y="60" width="130" height="30" as="geometry" />
        </mxCell>
        <mxCell id="Ql8y3_wngauIUIK8zuqU-47" value="...." style="text;strokeColor=none;fillColor=none;align=left;verticalAlign=middle;spacingLeft=4;spacingRight=4;overflow=hidden;points=[[0,0.5],[1,0.5]];portConstraint=eastwest;rotatable=0;whiteSpace=wrap;html=1;" vertex="1" parent="Ql8y3_wngauIUIK8zuqU-44">
          <mxGeometry y="90" width="130" height="30" as="geometry" />
        </mxCell>
        <mxCell id="Ql8y3_wngauIUIK8zuqU-52" style="edgeStyle=orthogonalEdgeStyle;rounded=0;orthogonalLoop=1;jettySize=auto;html=1;entryX=0.997;entryY=0.44;entryDx=0;entryDy=0;entryPerimeter=0;" edge="1" parent="WIyWlLk6GJQsqaUBKTNV-1" source="Ql8y3_wngauIUIK8zuqU-45" target="Ql8y3_wngauIUIK8zuqU-33">
          <mxGeometry relative="1" as="geometry">
            <Array as="points">
              <mxPoint x="950" y="405" />
              <mxPoint x="950" y="136" />
            </Array>
          </mxGeometry>
        </mxCell>
        <mxCell id="Ql8y3_wngauIUIK8zuqU-53" value="blip2 + GPT/&lt;br&gt;GRiT + GPT" style="text;strokeColor=none;fillColor=none;align=left;verticalAlign=middle;spacingLeft=4;spacingRight=4;overflow=hidden;points=[[0,0.5],[1,0.5]];portConstraint=eastwest;rotatable=0;whiteSpace=wrap;html=1;" vertex="1" parent="WIyWlLk6GJQsqaUBKTNV-1">
          <mxGeometry x="580" y="325" width="80" height="30" as="geometry" />
        </mxCell>
      </root>
    </mxGraphModel>
  </diagram>
</mxfile>
